<?xml version="1.0" encoding="utf-8"?>
<!-- Generator: Adobe Illustrator 24.3.0, SVG Export Plug-In . SVG Version: 6.00 Build 0)  -->
<svg version="1.1" id="Layer_1" xmlns="http://www.w3.org/2000/svg" xmlns:xlink="http://www.w3.org/1999/xlink" x="0px" y="0px"
	 viewBox="0 0 512 512" style="enable-background:new 0 0 512 512;" xml:space="preserve">
<style type="text/css">
	.st0{fill:#1D1D1B;}
	.st1{fill:#2D6001;}
</style>
<g id="XMLID_1_">
	<path id="XMLID_24_" class="st0" d="M2.68,342.35v-26.38h9.96c1.96,0,3.65,0.28,4.77,0.7c1.26,0.56,2.24,1.4,2.95,2.39
		c0.7,1.12,1.12,2.25,1.12,3.65c0,0.98-0.42,2.1-0.98,3.23c-0.56,0.98-1.54,1.68-2.81,2.25c1.54,0.56,2.81,1.26,3.65,2.39
		c0.84,1.12,1.26,2.53,1.26,4.07c0,1.12-0.14,2.39-0.7,3.51c-0.56,0.98-1.12,1.82-1.96,2.39c-0.7,0.56-1.68,0.98-2.95,1.26
		c-1.12,0.28-2.39,0.42-4.21,0.42L2.68,342.35 M497.98,342.35v-11.23l-10.24-15.15h4.35l5.19,8c0.98,1.4,1.82,3.09,2.81,4.49
		c0.7-1.4,1.68-2.95,2.95-4.63l5.05-7.86h4.07l-10.52,15.15v11.22L497.98,342.35L497.98,342.35L497.98,342.35z M465.99,342.35
		v-23.43h-8.7v-3.09h20.91v3.09h-8.7v23.43H465.99z M444.38,342.35h-3.65v-26.38h3.65V342.35z M405.79,333.93l3.37-0.28
		c0.14,1.26,0.42,2.39,0.98,3.37c0.56,0.84,1.4,1.4,2.81,1.96c1.12,0.56,2.67,0.7,4.07,0.7c1.26,0,2.39-0.14,3.51-0.56
		c1.12-0.28,1.82-0.84,2.25-1.54c0.56-0.7,0.84-1.4,0.84-2.24c0-0.7-0.28-1.4-0.7-2.1c-0.56-0.56-1.26-1.12-2.39-1.54
		c-0.7-0.28-2.24-0.7-4.77-1.26c-2.24-0.56-4.07-0.98-5.05-1.54c-1.26-0.7-2.1-1.4-2.95-2.53c-0.56-0.98-0.84-2.1-0.84-3.37
		c0-1.26,0.42-2.53,1.12-3.79c0.7-1.12,1.82-1.96,3.37-2.67c1.4-0.56,3.09-0.84,4.77-0.84c2.1,0,3.79,0.28,5.19,0.84
		c1.54,0.56,2.81,1.54,3.51,2.81c0.84,1.26,1.26,2.67,1.26,4.21l-3.37,0.28c-0.14-1.68-0.7-2.95-1.82-3.79
		c-0.98-0.84-2.53-1.26-4.63-1.26c-1.96,0-3.65,0.42-4.63,1.12c-0.84,0.7-1.4,1.68-1.4,2.67c0,0.98,0.42,1.68,0.98,2.39
		c0.7,0.56,2.53,1.12,5.33,1.82c2.95,0.56,4.77,1.12,5.89,1.54c1.4,0.7,2.67,1.68,3.37,2.81c0.7,1.12,1.12,2.24,1.12,3.79
		c0,1.4-0.42,2.81-1.12,4.07c-0.84,1.12-1.96,2.1-3.65,2.95c-1.4,0.7-3.23,0.98-5.05,0.98c-2.39,0-4.35-0.28-6.03-0.98
		c-1.54-0.7-2.95-1.68-3.79-3.23C406.35,337.16,405.79,335.62,405.79,333.93z M371.56,342.35v-26.38h11.79
		c2.24,0,4.07,0.14,5.33,0.7c1.12,0.42,2.1,1.26,2.95,2.39c0.7,1.12,1.12,2.67,1.12,4.07c0,1.82-0.56,3.51-1.96,4.77
		c-1.12,1.12-2.95,1.96-5.61,2.39c0.98,0.42,1.68,0.84,2.1,1.26c0.98,0.84,1.96,1.96,2.95,3.51l4.63,7.16h-4.49l-3.51-5.47
		c-0.98-1.54-1.82-2.95-2.53-3.65c-0.7-0.84-1.26-1.4-1.82-1.82c-0.42-0.28-0.98-0.56-1.54-0.7c-0.42,0-0.98,0-1.82,0h-3.93v11.65
		L371.56,342.35L371.56,342.35z M375.21,327.62h7.58c1.54,0,2.95-0.28,3.79-0.56c0.84-0.28,1.54-0.84,1.96-1.54
		c0.42-0.7,0.7-1.4,0.7-2.39c0-1.26-0.42-2.25-1.4-3.23c-0.84-0.7-2.39-1.12-4.21-1.12h-8.42V327.62L375.21,327.62z M338.16,342.35
		v-26.38h19.22v3.09h-15.57v8.14h14.59v3.23h-14.59v8.98h16.14v3.23L338.16,342.35z M312.35,342.35l-10.24-26.38h3.79l6.88,19.22
		c0.56,1.54,0.98,3.09,1.4,4.35c0.42-1.4,0.84-2.95,1.4-4.35l7.02-19.22h3.65l-10.38,26.38H312.35z M289.9,342.35h-3.51v-26.38h3.51
		V342.35z M250.33,342.35v-26.38h3.65l13.89,20.77v-20.77h3.37v26.38h-3.51l-14.03-20.77v20.77H250.33z M232.37,315.97h3.65v15.29
		c0,2.67-0.28,4.77-0.98,6.31c-0.56,1.4-1.54,2.81-3.23,3.79c-1.54,0.98-3.65,1.4-6.17,1.4c-2.39,0-4.49-0.42-6.03-1.26
		c-1.54-0.84-2.81-1.96-3.51-3.65c-0.56-1.68-0.98-3.93-0.98-6.59v-15.29h3.65v15.29c0,2.1,0.14,3.93,0.56,5.05
		c0.42,0.98,1.12,1.82,2.1,2.39c1.12,0.56,2.25,0.84,3.93,0.84c2.53,0,4.35-0.56,5.47-1.68c1.12-1.12,1.54-3.37,1.54-6.59
		L232.37,315.97L232.37,315.97z M180.73,342.35v-23.43h-8.7v-3.09h20.91v3.09h-8.56v23.43H180.73z M159.26,342.35h-3.65v-26.38h3.65
		V342.35L159.26,342.35z M121.94,342.35v-26.38h18.94v3.09h-15.57v8.14h14.59v3.23h-14.59v8.98h16.28v3.23L121.94,342.35z
		 M88.41,342.35v-3.23l13.61-16.98c0.98-1.12,1.82-2.24,2.81-3.23H90.09v-3.09h18.94v3.09l-15.01,18.52l-1.54,1.68h16.84v3.23H88.41
		L88.41,342.35z M55.15,342.35v-26.38H66.8c2.25,0,4.21,0.14,5.33,0.7c1.26,0.42,2.24,1.26,3.09,2.39c0.7,1.12,0.98,2.67,0.98,4.07
		c0,1.82-0.56,3.51-1.68,4.77c-1.26,1.12-3.23,1.96-5.61,2.39c0.84,0.42,1.54,0.84,1.96,1.26c0.98,0.84,1.96,1.96,2.95,3.51
		l4.63,7.16h-4.35l-3.51-5.47c-1.12-1.54-1.82-2.95-2.67-3.65c-0.7-0.84-1.26-1.4-1.68-1.82c-0.56-0.28-1.12-0.56-1.54-0.7
		c-0.42,0-1.12,0-1.96,0h-4.07v11.65L55.15,342.35L55.15,342.35L55.15,342.35L55.15,342.35z M58.66,327.62h7.58
		c1.54,0,2.95-0.28,3.79-0.56c0.84-0.28,1.54-0.84,1.96-1.54c0.56-0.7,0.7-1.4,0.7-2.39c0-1.26-0.42-2.25-1.26-3.23
		c-0.84-0.7-2.39-1.12-4.35-1.12h-8.42V327.62z M40.14,342.35h-3.51v-26.38h3.51V342.35z M6.04,327.06h5.75
		c1.54,0,2.67-0.14,3.37-0.28c0.84-0.28,1.54-0.7,1.96-1.4c0.42-0.56,0.7-1.26,0.7-2.24c0-0.84-0.28-1.54-0.7-2.25
		c-0.42-0.56-0.98-0.98-1.68-1.26c-0.84-0.28-2.1-0.42-4.07-0.42H6.04V327.06z M6.04,339.27h6.59c1.12,0,1.82,0,2.24,0
		c0.84-0.14,1.54-0.42,1.96-0.7c0.56-0.42,0.98-0.84,1.4-1.54c0.28-0.56,0.42-1.26,0.42-2.1c0-0.98-0.28-1.82-0.7-2.53
		c-0.56-0.7-1.12-1.26-2.1-1.54c-0.84-0.28-2.1-0.42-3.79-0.42H5.9"/>
	<path id="XMLID_51_" class="st1" d="M191.68,216.63c1.4-4.21,6.17-4.77,9.68-6.17l0.7-0.56v-2.81c1.96-2.1,5.33-4.21,7.58-4.91
		c1.26,0.7,3.51,0.7,4.77,0.7l1.4,1.26v1.4l1.26,1.4c0,0.56-0.56,1.26-0.56,1.96l1.26,1.26h1.26c1.4,0,4.21-2.81,5.61-2.81
		c-1.4-2.81-5.61-4.77-6.88-7.44c0.7-1.4,1.96-3.51,2.67-4.21c1.96,0,4.91,1.4,6.88,0.7c0-1.26-0.7-5.47-1.4-6.88
		c-0.56,0-1.26,0.7-1.96,0.7c-1.4-1.26-3.51-1.96-4.91-3.37c0.7-0.7,2.25-0.7,2.95-0.7c1.26-0.7,4.07-1.4,5.47-2.81
		c-0.7-0.7-2.67-2.1-3.51-2.1c0-1.26,0.7-1.96,1.4-2.81c0.56,0,1.26-0.56,1.96-0.56c1.26,0,2.81,0.56,4.07,0.56l1.4,1.4
		c0.7,0,1.4-1.4,1.4-1.96c1.96,0,4.63,0,6.03,1.26c0,0.7-0.7,1.26-0.7,1.96c2.1,2.1,4.21,5.61,6.88,4.21c0-3.51-2.81-5.47,0.7-8.98
		v-2.81c4.07-2.1,8.98-4.21,13.05-4.77c0.7,0,1.4,0.56,1.96,0.56l2.1,1.96h4.07c0,1.4-1.96,4.21-3.37,5.61
		c-1.4,0-3.51,1.26-4.21,1.26c1.96,3.51,7.44-1.26,9.54-3.37c2.1,0,6.31-2.1,7.72-3.65c0.7,0.7,1.96,1.4,2.81,2.1
		c0,1.96-1.4,4.21-1.4,6.17c0.7,0.56,2.1,1.26,2.81,1.96c2.95,0,6.17-1.96,8.98-1.96c1.4,1.26,1.4,3.51,1.4,4.77
		c-1.4,0.7-3.51,1.4-4.21,2.1c0,2.67,3.51,4.07,4.91,5.33c0.7,0,1.96-1.26,1.96-1.26v-2.81l1.4-1.26l5.33,2.67v2.81
		c0,0-1.26,1.4-1.26,2.25c0.7,1.26,0.7,4.07,0,5.47c1.26,0.7,1.96,0.7,3.51-0.7c0-1.96,1.4-3.51,1.4-5.47l2.81-2.81
		c1.26,0,2.67,0.7,4.07,1.26c0,4.91,1.26,7.72,6.88,7.72c0,1.26-0.7,1.96-1.4,2.67c-3.51,0-6.88,1.26-10.94,1.26
		c0,0-1.26,1.4-1.26,2.1c-1.4,0-2.1,0.7-2.95,1.26c0,0.7,1.4,2.25,1.4,2.25c4.21,0,8.98-2.25,12.49,1.26v2.81
		c-0.7,0.7-2.25,1.4-2.95,1.96h-2.81c-0.56,0.7-1.96,1.26-2.67,1.96c-1.4-0.7-3.51-2.67-4.21-3.37c-2.25,0-5.47,0-7.44,0.7
		l1.96,1.82h2.81c1.96,1.96,5.47,3.51,7.58,5.61c1.4,0,4.21-0.7,6.17-0.7c0.7,0.7,1.4,1.26,1.4,2.81c-1.4,0-4.91,1.96-5.61,2.81
		v2.81l-1.26,1.26c-1.26,0-4.07,0.7-5.47,1.4c-2.1-1.4-3.51-4.21-5.47-6.17c-1.4,0.7-1.96,2.81-3.51,4.21h-2.81
		c-0.7-0.7-1.96-2.95-2.81-3.51c-1.96,0-3.51,1.96-4.07,3.51c-0.7,0-1.4,0.56-2.1,0.56c0,0.7-0.7,2.25-0.7,2.95
		c-1.96,0-3.51-3.51-5.47-3.51H276c-1.4,0-2.67,2.81-4.91,2.81l-1.26-1.4v-2.81c1.26-0.7,3.51-1.96,4.21-4.07
		c-0.7,0-2.24-0.7-3.65-0.7c-3.37,3.37-2.67,8.98-5.33,11.65v9.54c4.77,4.91,8.98,4.91,14.31,7.72c-4.77,1.96-11.51,0-17.12,1.26
		c0,0-1.26-1.26-1.96-1.26h-2.81c-2.81,1.26-15.15,1.26-17.96,0c0-2.1,3.51-4.21,4.21-5.61c1.4,0,4.07-1.96,5.47-2.67
		c0-5.61,0.7-15.86-3.51-19.92l-1.26,1.26v4.21c0,0-1.4,1.26-2.1,1.26c-1.26-1.26-2.81-1.96-3.51-3.51
		c-0.56,0.7-2.67,2.81-2.67,3.51v1.4c0,0.7-1.96,1.26-2.81,1.26c-0.7-1.26-1.4-3.51-1.4-4.77c-0.7-0.7-1.96-1.4-2.81-2.25
		c-1.96,0.7-3.51,2.25-4.07,3.51c-3.51,0.7-7.72,1.4-11.65,1.4l-1.4-1.4v-1.26c0-2.25,6.17-2.81,7.44-2.81c0-0.7,0.7-1.4,0.7-1.96
		c1.4,0,1.96-0.7,3.51-0.7l1.4-1.4c1.26,0,2.67-0.56,3.37-1.26c-0.7-1.4-3.37-2.95-5.47-2.95c0-1.26-0.7-2.67-1.26-3.37
		c-1.4,0-2.1,0.7-3.51,0.7l-1.4,1.26c-1.26,0-3.37,0.7-4.77,0.7c-0.7,0.56-2.81,1.96-4.21,1.96c-0.7,0.7-1.96,1.4-2.67,2.1
		c-1.26-1.4-4.07-4.21-5.47-4.91C197.15,218.6,192.38,220,191.68,216.63 M225.35,212.42l-1.4-1.26h-6.03c0,2.81,1.96,3.51,4.07,4.07
		C223.25,215.23,226.05,213.83,225.35,212.42z M234.89,196.71c0.7,0,2.1-1.26,2.1-1.26c0-0.7-1.4-2.1-1.4-2.1
		c-1.96,0-4.07,1.4-6.03,1.4c0,1.96,0.7,8.28,1.26,10.24c0,0,1.4-1.4,1.96-1.4C232.93,200.78,234.89,198.67,234.89,196.71z
		 M244.57,211.16c0,0,1.4-1.26,1.4-1.96c-1.4-0.7-3.51-1.26-4.07-2.81c-1.4,0-2.95,0.7-3.51,0.7c0,1.96,1.26,1.96,0.56,4.07
		c-1.26-0.56-2.81-0.56-4.07-0.56c0.56,1.12,1.96,3.37,2.81,4.07c1.26,0,1.96-0.7,2.81-1.4
		C242.05,213.12,244.01,211.72,244.57,211.16z M239.1,217.33l-1.26-1.4c-1.4,0-2.95,0.7-3.51,0.7l2.81,2.81
		C237.84,219.44,239.1,217.9,239.1,217.33z M234.33,215.37c-0.7,0-1.4-0.7-2.1-0.7l-0.56,0.7c0,0.56,0.56,1.26,0.56,1.96
		L234.33,215.37z M246.12,215.93c1.26,2.1,1.26,0.7,3.37,0.7c0-1.96-0.7-4.07-0.7-5.33C247.38,211.86,246.12,213.83,246.12,215.93z
		 M257.06,223.37c0,1.4,0.56,2.81,1.26,4.21c0.7,0,1.96,0.56,2.81,0.56l5.47-6.03c0-1.26-1.26-3.37-1.26-4.07
		c-1.4,0.7-2.1,1.26-2.95,2.81c-1.26-0.7-1.96-1.4-1.96-3.51c1.4-0.7,1.4-1.4,1.4-3.51l-2.25-1.96
		C258.32,215.37,257.06,219.44,257.06,223.37z M255.66,214.67c0-0.7-1.26-2.1-1.26-2.1c-1.26,0.7-1.96,1.4-1.96,3.51l1.26,1.26
		C254.96,215.93,255.66,215.93,255.66,214.67z M262.53,194.74c0,0-1.26-1.4-1.26-2.25c-0.7,0-2.1,0.7-2.81,0.7
		c0,0.7,0.56,1.4,0.56,1.96c-0.56,0-2.1,1.4-2.1,1.4c1.4,0.56,2.81,0,4.91,0C261.97,196.01,262.53,195.31,262.53,194.74z
		 M254.82,189.83l-1.26-1.26c-1.26,0.7-1.26,2.81-0.7,4.07C254.26,191.8,255.66,191.24,254.82,189.83z M265.2,189.83l-1.4,1.4
		l1.4,1.26c1.26-1.26,4.07-3.37,2.67-6.03C265.9,187.17,265.2,187.73,265.2,189.83z M259.03,187.17c0,0.56,1.26,1.26,1.96,1.26
		c0-0.7,0.7-3.51,0.7-4.77l-0.7-0.7c-1.4-0.56-4.07,0.7-5.47,0.7c0.7,1.26,1.4,1.26,3.51,1.26V187.17z M252.85,198.67
		c0-0.56,0.7-1.96,0-1.96c0,0-1.26,0.7-1.96,0.7C250.89,198.11,252.29,198.67,252.85,198.67z M241.21,196.71
		c0.7,0,1.26-0.7,1.96-0.7c0-1.26-0.7-1.96-1.26-2.81c-0.7,0-1.96,1.4-1.96,1.4C239.8,195.45,241.21,196.71,241.21,196.71z
		 M239.1,200.22c0,0,1.26-1.26,1.26-1.96c0,0-1.26-1.4-1.26-2.25c-1.26,0.7-1.96,2.95-1.96,4.21H239.1z M244.57,207.09
		c1.4-1.4,0-2.81-1.26-4.21C242.61,204.43,244.01,206.39,244.57,207.09z M279.65,226.31c0.56,0,1.26-0.7,1.96-0.7
		c0-1.4,1.26-2.81,1.96-3.51c-0.7-1.26-4.77-1.96-6.03-1.26l-0.7,0.7v2.67C278.39,224.91,278.95,224.91,279.65,226.31z
		 M271.51,220.14c0.56,0,1.96-1.26,2.81-1.26c0-2.1-0.7-2.1-2.25-2.95c-0.56,0-1.82,1.4-2.53,1.4
		C269.41,219.58,270.11,220.14,271.51,220.14z M280.49,212.42c0,0,1.26,1.4,1.26,2.1c1.26,0,1.96-0.7,2.81-1.4
		c0-1.26,0-3.37-0.7-4.77c-0.7,0-1.26,1.4-1.26,1.96c-1.4-1.26-1.4-2.67-1.96-4.07c-1.4,0.7-2.81,1.4-2.81,3.51
		C278.39,210.46,279.65,211.16,280.49,212.42z M269.97,211.16c0-0.56,0.56-1.26,0.56-1.96l-0.56-0.84c-0.56,0-1.26,0.7-1.96,0.7
		L269.97,211.16z M265.2,200.22c1.26,0,3.37-1.26,4.63-1.26c-1.26-1.4-2.67-0.7-4.63-0.7V200.22z M287.23,198.11
		c-0.56,0.56-0.56,1.26-0.56,1.96c2.81,0,6.73,0,8.84-0.7c-0.7-1.26-1.26-1.26-3.51-1.26c0.7,0,1.4-0.7,2.1-0.7
		C292.7,195.45,289.33,196.71,287.23,198.11z M273.48,189.83c-1.26,1.4-2.67,1.4-1.96,4.21c0.7-0.7,1.96-1.4,2.81-2.25
		C274.18,191.24,273.48,190.53,273.48,189.83z M278.95,192.5c1.26,0,1.96,0.7,3.37,0c0-0.56-1.26-2.67-1.96-2.67h-1.26
		c-1.26-0.7-0.56-1.4-2.81-0.7c0,0.7,0.7,1.96,0.7,2.81C277.69,191.94,278.39,192.5,278.95,192.5z M287.93,207.65
		c0.56,0,1.96,0.56,2.67,0.56c0,0,1.4-1.12,2.1-1.12c0.7,0.56,1.96,1.12,3.51,1.12c1.26-1.12,0.7-1.12,0.7-2.67
		c-1.4,0.7-2.1-0.7-2.81-1.96c-1.4,0-2.95,0.56-4.21,0.56C288.49,205.69,287.23,205.69,287.93,207.65"/>
	<path id="XMLID_91_" class="st0" d="M511.45,249.33c0.14,0,0,0.98-0.56,3.23c-0.7,1.96-1.12,3.23-1.54,3.09
		c-2.24,0-7.3,1.68-15.01,5.61c-6.03,2.95-25.68,12.77-32.97,7.16c-1.68-1.68-2.95-3.93-3.51-6.73c-3.37-15.01-1.82-30.45-6.31-44.9
		c-1.12-3.93-1.68-5.89-1.68-6.17c0.42-1.4,0.98-3.51,1.54-5.89l0.42-0.28c0.7,0,1.82,2.53,3.51,7.44
		c3.79,12.63,3.09,26.1,4.49,39.01c0.42,4.35,1.26,13.33,7.02,12.63c-1.96-4.63-2.95-7.44-2.95-8.84c0-3.51,0.98-6.31,3.23-8.98
		c2.1-2.53,4.91-3.93,8.28-4.07c1.82-0.14,6.88,0.98,15.15,3.23C499.66,247.22,506.68,248.62,511.45,249.33 M497.28,253.68
		c-1.68-0.14-5.33-1.12-10.8-2.81c-4.77-1.54-8.98-2.25-12.21-2.25c-0.98,0-1.96,0-3.09,0.14c-0.84,0.14-1.96,0.7-3.23,1.82
		c-1.12,1.12-1.68,2.25-1.68,3.09c0,0.28,0.14,0.42,0.14,0.56c0.98,1.68,2.24,4.63,4.07,8.7
		C479.04,261.39,488.02,258.31,497.28,253.68z M442.56,261.39c0-1.12-0.42-2.24-0.98-3.37c-0.56-0.84-1.26-1.4-1.96-1.4
		c-1.4,0-2.39,0.42-3.37,1.12c1.4,1.26,2.24,1.96,2.67,2.1C439.89,260.83,441.15,261.25,442.56,261.39z M413.93,255.08
		c-1.96-0.56-3.93-0.84-5.75-0.84c-1.26-0.14-2.67,0.14-4.21,0.42c0.84,0.7,1.96,1.82,3.93,3.51
		C410.84,256.48,412.81,255.5,413.93,255.08z M123.06,258.45c-0.7,3.93-1.54,6.59-2.67,8c-0.98,1.4-4.63,3.93-10.66,7.3
		c-6.88,4.07-13.75,7.02-20.35,9.4c-4.49,0.56-12.21,1.68-23.15,3.37c-0.42,0-3.51-0.14-3.37-0.28l31.99-11.51
		c5.89-1.96,11.51-4.91,17.26-8.14c5.75-3.37,8.7-5.33,8.56-6.31c-0.28-0.98-1.12-3.65-2.81-8.14c-1.26-3.65-2.1-6.74-2.25-9.4
		c-0.56,0-0.98-0.14-0.84-0.28c0.42-1.82,0.84-3.79,1.4-5.47c0.28-0.98,0.56-0.98,1.12-0.14c1.68,2.67,3.37,4.49,4.49,5.75
		c0.42,0.56,0.7,0.84,0.7,0.98c0,0.28-0.42,0.28-1.4,0.14c-0.14-0.14-0.7-0.14-1.68-0.42c0.14,0.28,0.7,2.25,2.1,6.45
		C123.06,253.11,123.34,256.06,123.06,258.45z M386.85,273.6c-0.98,1.4-1.96,3.23-1.68,5.05c0,0.42,0.28,0.84,0.7,0.98
		c0.7,0.42,1.68-0.56,2.1-0.98l0.14,0.42c-0.14,0.98-0.56,1.82-1.4,2.53c-0.28,0.28-0.98,0.28-1.4,0.14
		c-1.26-0.42-1.4-1.82-1.26-3.09c0.28-2.1,1.54-4.63,3.37-6.31c-2.81-0.42-5.33-1.68-8-4.63c-0.98-0.98-2.1-2.95-3.51-5.47
		c-0.98-1.82-1.82-2.95-2.95-2.95c-1.26-0.14-3.09,0.84-5.19,2.81c-2.1,1.82-3.79,3.79-4.63,5.61c-1.4,3.51-2.81,7.02-4.21,10.52
		c-1.4,3.37-3.51,4.91-5.61,4.91c-2.67,0-4.91-1.68-6.88-5.19c-2.24-3.79-3.37-8.42-3.37-13.75c0-1.54,0.14-3.51,0.56-5.89
		c-28.62,14.17-181.84,51.21-179.88-6.45c0-2.1,0-5.47-0.7-10.24c-0.56,8-4.77,11.65-12.35,12.21c0,0.14-0.14,1.12,0.14,3.09
		c0.14,1.68,0.28,2.95,0.28,3.37c-0.28,4.07-1.12,7.44-2.81,10.24c-0.84,1.68-3.93,4.07-8.98,7.3c-0.14,0-0.14,0.14-0.28,0.28
		c-0.98,1.4-2.1,3.23-1.82,5.05c0.14,0.42,0.42,0.84,0.84,1.12c0.56,0.28,1.54-0.7,2.1-1.12c0.14,0,0.14,0.28,0,0.56
		c-0.14,0.84-0.42,1.68-1.26,2.24c-0.42,0.28-0.98,0.42-1.4,0.14c-1.26-0.42-1.4-1.82-1.4-3.09c0.28-1.4,0.98-3.23,1.82-4.63
		c-0.84,0.56-1.96,1.26-3.09,1.82c-8,4.49-16.7,7.72-24.55,10.38c-3.65,1.12-22.17,3.23-25.54,3.09c-0.28,0,0.28-0.28,0.7-0.42
		c10.52-3.09,21.05-6.88,31.85-11.37c3.37-1.26,8.84-3.51,16.14-7.16c3.23-1.68,6.31-3.65,9.54-5.47c3.51-1.96,5.05-3.79,5.19-5.05
		c0.28-2.1-0.56-5.33-2.25-9.4c-1.82-4.21-2.67-6.17-2.67-6.17c0.28-2.39,0.7-4.63,1.54-6.74c0.56,0.14,0.98,1.12,2.1,2.53
		c6.59,6.17,14.45-0.84,15.29-6.88c0.14-0.84,0.28-3.23,1.4-3.93c0.7,0.84,1.12,2.39,1.4,4.35c0.42,2.25,0.7,7.16,1.68,14.73
		c6.17,44.2,152.1,11.93,179.18,0c0.42-4.35-1.12-8.7-3.79-11.79l3.65-6.17c3.79,4.49,5.47,10.1,3.93,15.43
		c-0.56,2.25-2.67,5.05-4.63,7.02c0,0.98,0,1.96-0.14,3.23c0,1.12-0.14,2.1-0.14,2.95c0,3.09,0.56,6.03,1.68,8.98
		c1.26,3.79,3.23,5.61,5.33,5.61c1.96,0,3.79-1.12,4.91-3.51c1.26-2.81,2.1-5.47,3.37-8.28c1.68-3.93,3.79-7.3,6.03-9.68
		c2.81-2.81,5.19-4.21,7.72-4.21c1.12,0,2.39,0.98,3.79,3.37c2.1,3.37,3.37,5.19,3.65,5.47c6.73,8,13.33,4.63,20.63,0.28l-0.14-0.28
		c-3.37-2.67-5.75-3.93-7.3-3.93c-1.26,0-2.67,0.42-4.07,1.12h-0.28l-0.28-0.28c0-0.28,0.28-1.12,0.84-2.53
		c0.7-1.26,0.98-2.1,1.12-2.81c0-0.28,0.42-0.56,1.12-1.12c5.61-2.25,10.66-3.51,15.43-3.51c0.56,0,0.98,0,1.4,0
		c4.49,0.56,8.42,1.54,11.65,3.37c0.7,0.28,0.98,0.7,0.84,0.98l-2.1,5.33c-1.4,0.42-4.21,1.68-8.28,3.65
		c1.68,1.12,2.95,1.82,3.93,2.24c6.45,3.37,10.1,2.1,14.17-3.93c1.68-2.39,2.81-3.79,3.23-3.79c0.14,0,0.28,0.14,0.42,0.28
		c2.1-4.21,4.63-6.31,7.16-6.31c2.1,0,3.93,1.26,5.05,3.93c0.84,2.25,1.4,5.05,1.4,8.28c0,1.68-0.42,3.37-1.12,4.77
		c-0.84,1.68-1.82,2.39-3.09,2.39c-1.12,0-3.09-0.56-5.47-1.68c-2.95-1.4-5.05-3.09-6.31-4.91c-7.86,13.33-13.61,10.1-24.98,1.68
		c-6.03,3.65-12.49,8.56-18.8,8C387.55,272.62,387.13,273.04,386.85,273.6z M92.62,263.78c-4.91,6.03-17.68,5.75-18.24-4.21
		c-0.14-0.7-0.14-1.54,0-2.39c-5.33,3.23-12.07,6.45-19.22,9.26c-0.42,0.42-0.84,0.84-1.12,1.4c-1.12,1.4-2.1,3.23-1.82,5.05
		c0,0.42,0.42,0.84,0.7,0.98c0.7,0.42,1.68-0.56,2.1-0.98c0.28-0.14,0.14,0.28,0.14,0.42c-0.14,0.98-0.42,1.82-1.4,2.39
		c-0.28,0.28-0.84,0.28-1.26,0.14c-1.26-0.56-1.54-1.82-1.4-3.23c0.28-1.96,1.54-4.35,3.23-6.03c-16,5.89-34.38,8.84-46.86,1.82
		c-4.63-2.39-7.02-7.58-7.3-13.05c0-1.54,0.14-3.79,0.84-6.17c0.56-2.53,1.26-4.35,2.1-5.75l0.14-0.28
		c-2.39-1.54-2.67-4.63-2.53-7.3c0.84-6.59,6.03-14.59,11.51-18.52c-0.84,2.1-2.81,4.07-4.21,6.03c-2.53,3.65-5.33,7.86-4.63,12.63
		c0.14,1.12,0.98,2.1,1.96,2.81c1.68,0.84,4.21-1.4,5.47-2.81c0.42-0.14,0.14,0.84,0.14,1.26c-0.28,2.25-1.12,4.63-3.51,5.89
		c-0.84,0.7-2.39,0.84-3.65,0.56l-0.14-0.14v0.42c-1.26,2.39-1.68,4.91-1.54,7.3c0.28,4.35,2.67,7.72,6.73,9.82
		c20.2,10.1,47.57-1.54,66.37-10.24c0.7,0,1.12,0.14,1.12,0.84c0,0.84,0,2.25-0.14,4.35c-0.42,5.75,9.68,6.59,13.33,4.49
		c2.81-1.68,3.93-3.09,3.79-3.65c-0.98-3.79-2.1-7.02-5.05-9.26l1.96-7.86C95.42,246.52,98.93,255.92,92.62,263.78z M63.15,209.76
		c0-0.56-0.42-1.12-1.4-1.82c-0.84-0.56-1.68-0.84-2.24-0.84c-1.26,0-1.82,0.7-1.82,2.25c0,1.26,0.98,1.82,3.09,1.82
		C62.45,211.16,63.29,210.74,63.15,209.76z M64.97,208.78c0,1.4-0.42,2.81-1.4,3.93c-0.98,1.12-2.1,1.68-3.51,1.68
		c-2.53,0.14-3.65-1.26-3.79-3.93c0-1.82,0.42-3.51,1.26-4.63c0.7-1.26,1.82-1.82,3.23-1.82c1.12-0.14,1.96,0.42,2.95,1.4
		c0.84,0.98,1.26,2.1,1.26,3.51L64.97,208.78L64.97,208.78z M84.62,236c0-1.54-0.28-2.39-0.84-2.39c-0.56,0-1.12,0.84-1.54,2.67
		c-0.56,1.82-0.98,3.93-1.4,6.03h-0.84c-0.56-2.95-1.4-4.91-2.24-5.89c-0.28,1.12-0.84,1.68-1.54,1.68c-0.56,0-1.12-0.28-1.68-0.7
		c-1.4-1.54-1.12-5.05,1.4-5.05c1.12,0,1.96,0.84,2.95,2.39c0.84,1.96,1.54,3.51,1.82,4.35c0.56-3.23,1.12-5.47,1.68-7.02
		c0.7-1.54,1.4-2.39,2.24-2.39c0.98,0,1.54,0.84,1.54,2.67c0,0.56-0.28,1.26-0.7,2.25C85.32,234.87,85.04,235.29,84.62,236z
		 M39.16,212.98c-0.98,1.4-2.1,3.23-1.68,5.05c0,0.56,0.28,0.84,0.7,1.12c0.7,0.28,1.68-0.56,2.1-1.12c0.14,0,0.14,0.42,0.14,0.56
		c-0.14,0.84-0.56,1.82-1.4,2.25c-0.42,0.42-0.98,0.42-1.4,0.28c-1.26-0.56-1.4-1.82-1.26-3.23c0.28-2.67,2.39-5.89,4.63-7.44
		C40.56,211.58,39.72,212.28,39.16,212.98z M38.31,246.94c-0.98,1.4-2.1,3.23-1.82,5.19c0.14,0.42,0.42,0.84,0.84,0.98
		c0.56,0.28,1.54-0.56,2.1-1.12v0.56c-0.14,0.84-0.42,1.82-1.26,2.39c-0.42,0.28-0.98,0.28-1.4,0.14c-1.26-0.56-1.4-1.82-1.4-3.23
		c0.42-2.67,2.39-5.89,4.63-7.3C39.58,245.54,38.88,246.24,38.31,246.94z M22.74,205.13c2.1-1.4,7.58-0.84,9.82-0.14
		c3.09,0.98-2.53,12.63-7.72,13.75l-3.23,0.56c-0.14,0.14,6.74-5.47,8.42-7.44c0.56-0.84-6.03-0.42-7.16-0.42
		c-0.98,0-3.23,1.68-3.65,2.39C19.09,214.39,19.37,207.23,22.74,205.13z M26.53,246.8c0-1.54-0.28-2.39-0.84-2.39
		c-0.56,0-0.98,0.84-1.54,2.67c-0.56,1.68-0.98,3.79-1.4,5.89h-0.7c-0.7-2.95-1.4-4.77-2.24-5.75c-0.28,1.12-0.84,1.68-1.4,1.68
		c-0.56,0-1.12-0.28-1.68-0.84c-1.4-1.4-1.12-4.77,1.26-4.77c1.12,0,1.96,0.7,2.95,2.25c0.84,1.96,1.4,3.51,1.82,4.21
		c0.42-3.09,0.98-5.33,1.54-6.88c0.7-1.4,1.4-2.25,2.24-2.25c0.98,0,1.4,0.84,1.4,2.67c0,0.42-0.14,1.26-0.56,2.25
		C27.09,245.68,26.95,246.1,26.53,246.8z M112.12,203.44l-75.49,32.97l-3.79,4.63l75.35-32.69L112.12,203.44z M439.75,204.29
		l-79.14,34.52l-3.65,5.89l79.14-34.38L439.75,204.29z M132.6,224.21c-1.54,2.1-3.09,4.49-2.67,7.16c0,0.56,0.56,1.12,1.12,1.4
		c0.84,0.56,2.25-0.7,3.09-1.4c0.14-0.14,0.14,0.42,0.14,0.7c-0.28,1.26-0.7,2.67-1.96,3.37c-0.56,0.42-1.26,0.42-1.96,0.28
		c-1.68-0.7-1.96-2.81-1.82-4.49c0.42-3.79,3.37-8.28,6.45-10.38C134.43,221.96,133.31,223.09,132.6,224.21z M151.69,225.75
		c3.93,3.09,3.51,9.4,1.96,13.75c0.56-0.98,0.56-0.7,1.12-1.96c1.68-4.35,1.12-10.66-3.23-13.61
		C151.55,224.07,151.69,225.19,151.69,225.75z M150,204.99c2.1-1.4,7.72-0.84,9.82-0.14c3.09,0.98-2.53,12.35-7.72,13.61l-3.23,0.7
		c0,0,6.74-5.47,8.42-7.58c0.56-0.84-6.03-0.42-7.16-0.42c-0.98,0-3.23,1.68-3.51,2.53C146.5,214.25,146.78,207.09,150,204.99z
		 M437.92,239.36c0-0.98-0.14-1.54-0.56-1.54c-0.42,0-0.7,0.56-0.98,1.68c-0.42,1.26-0.7,2.53-0.98,4.21h-0.56
		c-0.42-1.96-0.98-3.51-1.54-4.07c-0.14,0.7-0.56,1.12-0.98,1.12c-0.42,0-0.84-0.14-1.12-0.56c-0.98-0.98-0.84-3.37,0.84-3.37
		c0.7,0,1.4,0.42,1.96,1.54c0.56,1.4,0.98,2.39,1.26,2.95c0.28-1.96,0.7-3.65,1.12-4.77c0.42-0.98,0.98-1.54,1.54-1.54
		c0.7,0,0.98,0.56,0.98,1.68c0,0.28-0.14,0.84-0.42,1.54C438.49,238.52,438.21,238.94,437.92,239.36z M450.97,270.23l-22.17,10.1
		l-1.82,2.67l22.03-9.96L450.97,270.23z M509.76,212.56l-45.04,19.64l-1.96,3.37l44.9-19.5L509.76,212.56z M381.66,239.5
		c-1.12,1.68-2.39,3.93-2.1,6.17c0,0.42,0.42,0.98,0.98,1.26c0.7,0.42,1.96-0.7,2.53-1.4c0.14,0,0.14,0.56,0.14,0.7
		c-0.28,1.12-0.7,2.24-1.68,2.81c-0.42,0.28-1.12,0.42-1.68,0.14c-1.54-0.56-1.68-2.25-1.54-3.79c0.28-3.23,2.95-7.02,5.47-8.98
		C383.34,237.54,382.36,238.38,381.66,239.5z M433.01,218.46c-0.98,1.4-2.1,3.23-1.82,5.19c0.14,0.42,0.42,0.84,0.84,0.98
		c0.56,0.42,1.54-0.56,2.1-0.98l0.14,0.42c-0.14,0.98-0.56,1.82-1.4,2.39c-0.42,0.28-0.98,0.28-1.4,0.14
		c-1.26-0.42-1.4-1.82-1.4-3.23c0.42-2.67,2.39-5.89,4.77-7.58C434.28,216.91,433.58,217.76,433.01,218.46z M410.98,227.86
		c-1.96,2.81-3.93,5.89-3.51,9.4c0.14,0.84,0.7,1.68,1.54,1.96c1.12,0.7,2.95-0.98,4.07-1.96c0.28,0,0.14,0.7,0.14,0.98
		c-0.28,1.68-0.98,3.51-2.53,4.49c-0.7,0.42-1.82,0.56-2.81,0.28c-2.25-0.98-2.67-3.51-2.39-5.75c0.56-5.05,4.49-10.94,8.56-13.89
		C413.37,225.19,411.97,226.45,410.98,227.86z M399.76,210.74c0-1.68-0.28-2.39-0.98-2.39c-0.42,0-0.98,0.84-1.4,2.53
		c-0.56,1.68-0.98,3.79-1.4,6.03h-0.84c-0.56-3.09-1.4-4.91-2.24-6.03c-0.28,1.26-0.84,1.82-1.54,1.82c-0.56,0-1.12-0.28-1.68-0.84
		c-1.4-1.4-1.12-4.91,1.4-4.91c0.98,0,1.96,0.7,2.95,2.39c0.84,1.96,1.54,3.51,1.82,4.21c0.56-3.09,1.12-5.47,1.68-7.02
		c0.7-1.54,1.4-2.24,2.39-2.24c0.98,0,1.54,0.84,1.54,2.67c0,0.42-0.28,1.26-0.7,2.25C400.6,209.48,400.32,210.04,399.76,210.74z
		 M499.8,228c-1.54,1.96-3.09,4.49-2.81,7.3c0.14,0.56,0.56,1.12,1.12,1.4c0.98,0.56,2.25-0.84,3.09-1.54
		c0.28,0,0.28,0.56,0.14,0.84c-0.14,1.26-0.56,2.67-1.82,3.37c-0.56,0.42-1.4,0.42-1.96,0.28c-1.82-0.7-1.96-2.67-1.96-4.49
		c0.56-3.79,3.51-8.28,6.59-10.52C501.63,225.89,500.5,226.88,499.8,228z M491.1,210.74c0-1.68-0.28-2.39-0.84-2.39
		s-0.98,0.84-1.54,2.53c-0.56,1.68-0.98,3.79-1.4,6.03h-0.7c-0.7-3.09-1.54-4.91-2.39-6.03c-0.28,1.26-0.84,1.82-1.4,1.82
		c-0.7,0-1.26-0.28-1.82-0.84c-1.4-1.4-1.12-4.91,1.4-4.91c1.12,0,2.1,0.7,3.09,2.39c0.84,1.96,1.4,3.51,1.68,4.21
		c0.56-3.09,1.12-5.47,1.68-7.02c0.7-1.54,1.4-2.24,2.24-2.24c0.98,0,1.54,0.84,1.54,2.67c0,0.42-0.28,1.26-0.7,2.25
		C491.8,209.48,491.52,210.04,491.1,210.74z M377.59,216.49c-1.54,0-2.24-0.98-3.51-1.12c-1.68,2.95-4.07,5.75-6.73,7.86
		c-3.09,2.53-5.89,4.91-9.68,6.03h-0.14c0.42-1.4,13.33-10.94,15.01-14.17c-0.14-1.4-2.1-1.54-2.1-3.23c0-1.82,0.98-3.23,1.96-4.77
		c0.28-0.84-0.7-2.67,0.98-2.95c3.23,1.54,5.05,4.77,6.03,7.86C380.12,213.27,378.85,215.93,377.59,216.49z M377.03,212.42
		c-0.56,0.14-0.98-0.28-1.26-0.7c0-0.42,0.28-0.98,0.7-1.12c0.42-0.28,0.7,0.42,0.98,0.56
		C377.73,211.72,377.59,212.42,377.03,212.42z M373.66,211.3c-0.56,0-0.84-0.28-0.98-0.7c-0.14-0.56,0.56-0.84,0.84-0.98
		c0.56,0,0.84,0.28,0.98,0.7C374.64,210.88,374.08,211.16,373.66,211.3z M463.74,206.67c5.89,4.49,5.19,13.89,3.23,20.06
		c0.84-1.4,0.7-0.98,1.54-2.95c2.39-6.17,1.68-15.57-4.49-19.92C463.6,204.29,464.02,205.97,463.74,206.67z M54.45,243.85l3.79-3.93
		l6.03,5.75l-4.07,4.49c0,0-3.37-2.81-5.19-4.49l-3.37,3.79l-6.45-5.61l4.49-4.63L54.45,243.85z M14.32,283l4.49-4.49l4.77,4.49
		l3.79-3.93l6.03,5.75l-4.07,4.63c0,0-3.37-2.95-5.19-4.49l-3.37,3.79L14.32,283z M341.67,208.07l4.49-4.49l6.03,5.61l-3.09,3.51
		l5.19,4.91l-4.21,4.49l-6.31-5.61l3.37-3.51C345.32,211.44,341.53,208.21,341.67,208.07z M158.28,279.91l3.37-3.37
		c-1.68-1.54-5.47-4.91-5.47-4.91l4.49-4.63l6.03,5.75l-3.09,3.51l5.19,4.91l-4.07,4.49L158.28,279.91z M110.58,220l4.49-4.49
		l6.03,5.75l-4.07,4.49L110.58,220z M252.43,289.6l4.49-4.63l6.03,5.75l-4.21,4.49L252.43,289.6z M483.39,280.76l4.49-4.49
		l6.03,5.75l-4.21,4.49L483.39,280.76"/>
</g>
</svg>
