<?xml version="1.0" encoding="UTF-8"?>
<svg viewBox="0 0 720 720" xmlns="http://www.w3.org/2000/svg">
  <style>
    .uml-text { font-family: "Inter Tight", -apple-system, Helvetica, Arial, sans-serif; font-size: 12px; fill: #0f1419; }
    .uml-line { stroke: #0f1419; stroke-width: 1.4; fill: none; }
    .uml-line-dashed { stroke: #0f1419; stroke-width: 1.2; fill: none; stroke-dasharray: 4,3; }
    .uml-line-blue { stroke: #4a8bb8; stroke-width: 1.4; fill: none; }
    .uml-box { stroke: #0f1419; stroke-width: 1.4; fill: white; }
    .actor-blue { stroke: #2c6e9a; stroke-width: 1.4; fill: #eaf3f9; }
    .mono { font-family: "JetBrains Mono", monospace; }
  </style>
<rect x="0" y="0" width="720" height="720" fill="white"/>
<defs><marker id="actArrow2" viewBox="0 0 10 10" refX="9" refY="5" markerWidth="7" markerHeight="7" orient="auto"><path d="M 0 0 L 10 5 L 0 10 Z" fill="#0f1419"/></marker></defs><circle cx="360" cy="45" r="9" fill="#0f1419"/><line x1="360" y1="54" x2="360" y2="80" class="uml-line" marker-end="url(#actArrow2)"/><rect x="295" y="80" width="130" height="42" rx="21" class="uml-box"/><text x="360" y="105" text-anchor="middle" class="uml-text">Receive Order</text><line x1="360" y1="122" x2="360" y2="150" class="uml-line" marker-end="url(#actArrow2)"/><rect x="180" y="151" width="360" height="7" rx="2" fill="#2c3540"/><line x1="255" y1="158" x2="255" y2="205" class="uml-line"/><line x1="255" y1="205" x2="255" y2="205" class="uml-line" marker-end="url(#actArrow2)"/><line x1="255" y1="158" x2="255" y2="184" class="uml-line"/><line x1="255" y1="184" x2="255" y2="205" class="uml-line" marker-end="url(#actArrow2)"/><rect x="190" y="205" width="130" height="42" rx="21" class="uml-box"/><text x="255" y="230" text-anchor="middle" class="uml-text">Fill Order</text><line x1="485" y1="158" x2="485" y2="184" class="uml-line"/><line x1="485" y1="184" x2="485" y2="205" class="uml-line" marker-end="url(#actArrow2)"/><rect x="420" y="205" width="130" height="42" rx="21" class="uml-box"/><text x="485" y="230" text-anchor="middle" class="uml-text">Send Invoice</text><line x1="255" y1="247" x2="255" y2="288" class="uml-line" marker-end="url(#actArrow2)"/><polygon points="255,288 289,310 255,332 221,310" class="uml-box"/><text x="255" y="314" text-anchor="middle" class="uml-text" font-size="10">Priority?</text><line x1="221" y1="310" x2="200" y2="380" class="uml-line" marker-end="url(#actArrow2)"/><text x="150" y="345" class="uml-text" font-size="11">[priority order]</text><line x1="289" y1="310" x2="350" y2="380" class="uml-line" marker-end="url(#actArrow2)"/><text x="300" y="345" class="uml-text" font-size="11">[else]</text><rect x="140" y="380" width="120" height="40" rx="20" class="uml-box"/><text x="200" y="404" text-anchor="middle" class="uml-text">Overnight</text><rect x="290" y="380" width="120" height="40" rx="20" class="uml-box"/><text x="350" y="404" text-anchor="middle" class="uml-text">Regular</text><line x1="200" y1="420" x2="200" y2="448" class="uml-line"/><line x1="200" y1="448" x2="232" y2="468" class="uml-line" marker-end="url(#actArrow2)"/><line x1="350" y1="420" x2="350" y2="448" class="uml-line"/><line x1="350" y1="448" x2="278" y2="468" class="uml-line" marker-end="url(#actArrow2)"/><polygon points="255,448 289,470 255,492 221,470" class="uml-box"/><text x="255" y="474" text-anchor="middle" class="uml-text" font-size="10"></text><line x1="255" y1="492" x2="255" y2="557" class="uml-line" marker-end="url(#actArrow2)"/><line x1="485" y1="247" x2="485" y2="300" class="uml-line" marker-end="url(#actArrow2)"/><rect x="420" y="300" width="130" height="42" rx="21" class="uml-box"/><text x="485" y="325" text-anchor="middle" class="uml-text">Receive Payment</text><line x1="485" y1="342" x2="485" y2="557" class="uml-line" marker-end="url(#actArrow2)"/><rect x="180" y="558" width="360" height="7" rx="2" fill="#2c3540"/><line x1="360" y1="565" x2="360" y2="595" class="uml-line" marker-end="url(#actArrow2)"/><rect x="295" y="595" width="130" height="42" rx="21" class="uml-box"/><text x="360" y="620" text-anchor="middle" class="uml-text">Close Order</text><line x1="360" y1="637" x2="360" y2="663" class="uml-line" marker-end="url(#actArrow2)"/><circle cx="360" cy="676" r="9" fill="white" stroke="#0f1419" stroke-width="1.4"/><circle cx="360" cy="676" r="5" fill="#0f1419"/>
</svg>
