<?xml version="1.0" encoding="UTF-8"?>
<svg viewBox="0 0 1300 760" xmlns="http://www.w3.org/2000/svg">
  <style>
    .uml-text { font-family:"Inter Tight",-apple-system,Helvetica,Arial,sans-serif; font-size:12px; fill:#0f1419; }
    .uml-line { stroke:#0f1419; stroke-width:1.4; fill:none; }
    .uml-line-dashed { stroke:#0f1419; stroke-width:1.2; fill:none; stroke-dasharray:4,3; }
    .uml-line-blue { stroke:#4a8bb8; stroke-width:1.4; fill:none; }
    .uml-box { stroke:#0f1419; stroke-width:1.4; fill:white; }
    .actor-blue { stroke:#2c6e9a; stroke-width:1.4; fill:#eaf3f9; }
  </style>
<rect x="0" y="0" width="1300" height="760" fill="white"/>
<defs><marker id="mhcArrow" viewBox="0 0 10 10" refX="9" refY="5" markerWidth="8" markerHeight="8" orient="auto"><path d="M 0 0 L 10 5 L 0 10 Z" fill="#4a8bb8"/></marker></defs><rect x="250" y="70" width="800" height="640" rx="8" class="uml-box" fill="#faf7f2" stroke-width="1.8"/><text x="650" y="60" text-anchor="middle" class="uml-text" font-weight="600" font-size="13">MHC-PMS</text><g transform="translate(70,230)"><circle cx="20" cy="6" r="8" class="actor-blue"/><line x1="20" y1="14" x2="20" y2="42" class="uml-line-blue"/><line x1="20" y1="22" x2="6" y2="32" class="uml-line-blue"/><line x1="20" y1="22" x2="34" y2="32" class="uml-line-blue"/><line x1="20" y1="42" x2="6" y2="58" class="uml-line-blue"/><line x1="20" y1="42" x2="34" y2="58" class="uml-line-blue"/><text x="20" y="76" text-anchor="middle" class="uml-text" font-size="11" font-weight="600">Medical</text><text x="20" y="90" text-anchor="middle" class="uml-text" font-size="10" fill="#5a6473">receptionist</text></g><g transform="translate(70,560)"><circle cx="20" cy="6" r="8" class="actor-blue"/><line x1="20" y1="14" x2="20" y2="42" class="uml-line-blue"/><line x1="20" y1="22" x2="6" y2="32" class="uml-line-blue"/><line x1="20" y1="22" x2="34" y2="32" class="uml-line-blue"/><line x1="20" y1="42" x2="6" y2="58" class="uml-line-blue"/><line x1="20" y1="42" x2="34" y2="58" class="uml-line-blue"/><text x="20" y="76" text-anchor="middle" class="uml-text" font-size="11" font-weight="600">Nurse</text></g><g transform="translate(1210,150)"><circle cx="20" cy="6" r="8" class="actor-blue"/><line x1="20" y1="14" x2="20" y2="42" class="uml-line-blue"/><line x1="20" y1="22" x2="6" y2="32" class="uml-line-blue"/><line x1="20" y1="22" x2="34" y2="32" class="uml-line-blue"/><line x1="20" y1="42" x2="6" y2="58" class="uml-line-blue"/><line x1="20" y1="42" x2="34" y2="58" class="uml-line-blue"/><text x="20" y="76" text-anchor="middle" class="uml-text" font-size="11" font-weight="600">Manager</text></g><g transform="translate(1210,540)"><circle cx="20" cy="6" r="8" class="actor-blue"/><line x1="20" y1="14" x2="20" y2="42" class="uml-line-blue"/><line x1="20" y1="22" x2="6" y2="32" class="uml-line-blue"/><line x1="20" y1="22" x2="34" y2="32" class="uml-line-blue"/><line x1="20" y1="42" x2="6" y2="58" class="uml-line-blue"/><line x1="20" y1="42" x2="34" y2="58" class="uml-line-blue"/><text x="20" y="76" text-anchor="middle" class="uml-text" font-size="11" font-weight="600">Doctor</text></g><g transform="translate(1130,90)"><circle cx="20" cy="6" r="8" class="actor-blue"/><line x1="20" y1="14" x2="20" y2="42" class="uml-line-blue"/><line x1="20" y1="22" x2="6" y2="32" class="uml-line-blue"/><line x1="20" y1="22" x2="34" y2="32" class="uml-line-blue"/><line x1="20" y1="42" x2="6" y2="58" class="uml-line-blue"/><line x1="20" y1="42" x2="34" y2="58" class="uml-line-blue"/><text x="20" y="76" text-anchor="middle" class="uml-text" font-size="11" font-weight="600">Patient record</text><text x="20" y="90" text-anchor="middle" class="uml-text" font-size="10" fill="#5a6473">system</text></g><ellipse cx="430" cy="130" rx="82" ry="26" class="uml-box"/><text x="430" y="134" text-anchor="middle" class="uml-text" font-size="11">Transfer data</text><ellipse cx="430" cy="220" rx="88" ry="26" class="uml-box"/><text x="430" y="224" text-anchor="middle" class="uml-text" font-size="11">Register patient</text><ellipse cx="430" cy="310" rx="92" ry="26" class="uml-box"/><text x="430" y="314" text-anchor="middle" class="uml-text" font-size="11">Unregister patient</text><ellipse cx="430" cy="400" rx="88" ry="26" class="uml-box"/><text x="430" y="404" text-anchor="middle" class="uml-text" font-size="11">Contact patient</text><ellipse cx="660" cy="120" rx="90" ry="26" class="uml-box"/><text x="660" y="124" text-anchor="middle" class="uml-text" font-size="11">View patient info</text><ellipse cx="880" cy="185" rx="86" ry="26" class="uml-box"/><text x="880" y="182" text-anchor="middle" class="uml-text" font-size="11">Export statistics</text><text x="880" y="197" text-anchor="middle" class="uml-text" font-size="11">report</text><ellipse cx="880" cy="300" rx="90" ry="26" class="uml-box"/><text x="880" y="297" text-anchor="middle" class="uml-text" font-size="11">Generate medical</text><text x="880" y="312" text-anchor="middle" class="uml-text" font-size="11">report</text><ellipse cx="620" cy="470" rx="92" ry="26" class="uml-box"/><text x="620" y="467" text-anchor="middle" class="uml-text" font-size="11">View patient</text><text x="620" y="482" text-anchor="middle" class="uml-text" font-size="11">medical record</text><ellipse cx="620" cy="560" rx="92" ry="26" class="uml-box"/><text x="620" y="557" text-anchor="middle" class="uml-text" font-size="11">Edit patient</text><text x="620" y="572" text-anchor="middle" class="uml-text" font-size="11">medical record</text><ellipse cx="850" cy="620" rx="92" ry="26" class="uml-box"/><text x="850" y="624" text-anchor="middle" class="uml-text" font-size="11">Setup consultation</text><line x1="94" y1="255" x2="348" y2="130" class="uml-line-blue"/><line x1="94" y1="255" x2="342" y2="220" class="uml-line-blue"/><line x1="94" y1="255" x2="338" y2="310" class="uml-line-blue"/><line x1="94" y1="255" x2="342" y2="400" class="uml-line-blue"/><line x1="94" y1="250" x2="572" y2="124" class="uml-line-blue"/><line x1="512" y1="125" x2="1128" y2="112" class="uml-line-blue" marker-end="url(#mhcArrow)"/><line x1="1210" y1="178" x2="748" y2="120" class="uml-line-blue"/><line x1="1210" y1="180" x2="966" y2="185" class="uml-line-blue"/><line x1="1210" y1="182" x2="970" y2="300" class="uml-line-blue"/><line x1="1210" y1="568" x2="712" y2="470" class="uml-line-blue"/><line x1="1210" y1="570" x2="712" y2="560" class="uml-line-blue"/><line x1="1210" y1="572" x2="942" y2="620" class="uml-line-blue"/><line x1="1210" y1="566" x2="970" y2="305" class="uml-line-blue"/><line x1="94" y1="585" x2="528" y2="470" class="uml-line-blue"/><line x1="94" y1="588" x2="528" y2="560" class="uml-line-blue"/>
</svg>
