<?xml version="1.0" encoding="UTF-8"?>
<svg viewBox="0 0 1240 720" xmlns="http://www.w3.org/2000/svg">
  <style>
    .uml-text { font-family:"Inter Tight",-apple-system,Helvetica,Arial,sans-serif; font-size:12px; fill:#0f1419; }
    .uml-line { stroke:#0f1419; stroke-width:1.4; fill:none; }
    .uml-line-dashed { stroke:#0f1419; stroke-width:1.2; fill:none; stroke-dasharray:4,3; }
    .uml-line-blue { stroke:#4a8bb8; stroke-width:1.4; fill:none; }
    .uml-box { stroke:#0f1419; stroke-width:1.4; fill:white; }
    .actor-blue { stroke:#2c6e9a; stroke-width:1.4; fill:#eaf3f9; }
  </style>
<rect x="0" y="0" width="1240" height="720" fill="white"/>
<defs><marker id="ucOpenE" viewBox="0 0 10 10" refX="9" refY="5" markerWidth="11" markerHeight="11" orient="auto"><path d="M 0 0 L 10 5 L 0 10" fill="none" stroke="#2c3540" stroke-width="1.4"/></marker><marker id="assocE" viewBox="0 0 10 10" refX="9" refY="5" markerWidth="8" markerHeight="8" orient="auto"><path d="M 0 0 L 10 5 L 0 10 Z" fill="#4a8bb8"/></marker></defs><rect x="250" y="70" width="740" height="600" rx="8" class="uml-box" fill="#faf7f2" stroke-width="1.8"/><text x="620" y="60" text-anchor="middle" class="uml-text" font-weight="600" font-size="13">Hotel Booking System</text><g transform="translate(60,250)"><circle cx="20" cy="6" r="8" class="actor-blue"/><line x1="20" y1="14" x2="20" y2="42" class="uml-line-blue"/><line x1="20" y1="22" x2="6" y2="32" class="uml-line-blue"/><line x1="20" y1="22" x2="34" y2="32" class="uml-line-blue"/><line x1="20" y1="42" x2="6" y2="58" class="uml-line-blue"/><line x1="20" y1="42" x2="34" y2="58" class="uml-line-blue"/><text x="20" y="76" text-anchor="middle" class="uml-text" font-size="11" font-weight="600">Guest</text></g><g transform="translate(60,560)"><circle cx="20" cy="6" r="8" class="actor-blue"/><line x1="20" y1="14" x2="20" y2="42" class="uml-line-blue"/><line x1="20" y1="22" x2="6" y2="32" class="uml-line-blue"/><line x1="20" y1="22" x2="34" y2="32" class="uml-line-blue"/><line x1="20" y1="42" x2="6" y2="58" class="uml-line-blue"/><line x1="20" y1="42" x2="34" y2="58" class="uml-line-blue"/><text x="20" y="76" text-anchor="middle" class="uml-text" font-size="11" font-weight="600">Hotel Manager</text></g><g transform="translate(1110,420)"><circle cx="20" cy="6" r="8" class="actor-blue"/><line x1="20" y1="14" x2="20" y2="42" class="uml-line-blue"/><line x1="20" y1="22" x2="6" y2="32" class="uml-line-blue"/><line x1="20" y1="22" x2="34" y2="32" class="uml-line-blue"/><line x1="20" y1="42" x2="6" y2="58" class="uml-line-blue"/><line x1="20" y1="42" x2="34" y2="58" class="uml-line-blue"/><text x="20" y="76" text-anchor="middle" class="uml-text" font-size="11" font-weight="600">Payment Provider</text></g><ellipse cx="440" cy="160" rx="86" ry="26" class="uml-box"/><text x="440" y="164" text-anchor="middle" class="uml-text" font-size="11">Search rooms</text><ellipse cx="440" cy="300" rx="86" ry="26" class="uml-box"/><text x="440" y="304" text-anchor="middle" class="uml-text" font-size="11">Book room</text><ellipse cx="440" cy="440" rx="88" ry="26" class="uml-box"/><text x="440" y="444" text-anchor="middle" class="uml-text" font-size="11">Cancel booking</text><ellipse cx="440" cy="575" rx="92" ry="26" class="uml-box"/><text x="440" y="572" text-anchor="middle" class="uml-text" font-size="11">Manage room</text><text x="440" y="587" text-anchor="middle" class="uml-text" font-size="11">inventory</text><ellipse cx="720" cy="160" rx="90" ry="26" class="uml-box"/><text x="720" y="164" text-anchor="middle" class="uml-text" font-size="11">Check availability</text><ellipse cx="720" cy="300" rx="96" ry="26" class="uml-box"/><text x="720" y="304" text-anchor="middle" class="uml-text" font-size="11">Apply discount code</text><ellipse cx="720" cy="440" rx="90" ry="26" class="uml-box"/><text x="720" y="444" text-anchor="middle" class="uml-text" font-size="11">Process payment</text><line x1="94" y1="268" x2="354" y2="165" class="uml-line-blue"/><line x1="94" y1="274" x2="354" y2="300" class="uml-line-blue"/><line x1="94" y1="280" x2="352" y2="440" class="uml-line-blue"/><line x1="94" y1="585" x2="348" y2="575" class="uml-line-blue"/><line x1="810" y1="440" x2="1104" y2="424" class="uml-line-blue" marker-end="url(#assocE)"/><line x1="526" y1="160" x2="630" y2="160" class="uml-line-dashed" marker-end="url(#ucOpenE)"/><text x="578" y="150" text-anchor="middle" font-family="JetBrains Mono, monospace" font-size="10" fill="#2c3540" font-weight="600">&lt;&lt;include&gt;&gt;</text><line x1="520" y1="290" x2="632" y2="172" class="uml-line-dashed" marker-end="url(#ucOpenE)"/><text x="548" y="212" text-anchor="middle" font-family="JetBrains Mono, monospace" font-size="10" fill="#2c3540" font-weight="600">&lt;&lt;include&gt;&gt;</text><line x1="520" y1="312" x2="632" y2="432" class="uml-line-dashed" marker-end="url(#ucOpenE)"/><text x="548" y="388" text-anchor="middle" font-family="JetBrains Mono, monospace" font-size="10" fill="#2c3540" font-weight="600">&lt;&lt;include&gt;&gt;</text><line x1="624" y1="300" x2="528" y2="300" stroke="#7a3a23" stroke-width="1.2" stroke-dasharray="4,3" fill="none" marker-end="url(#ucOpenE)"/><text x="578" y="291" text-anchor="middle" font-family="JetBrains Mono, monospace" font-size="10" fill="#7a3a23" font-weight="600">&lt;&lt;extend&gt;&gt;</text><text x="578" y="314" text-anchor="middle" font-family="JetBrains Mono, monospace" font-size="10" fill="#7a3a23" font-weight="600">[has code]</text>
</svg>
